<svg xmlns="http://www.w3.org/2000/svg" xmlns:xlink="http://www.w3.org/1999/xlink" viewBox="0,0,256,256" width="30px" height="30px" fill-rule="nonzero"><g transform=""><g fill="none" fill-rule="nonzero" stroke="none" stroke-width="1" stroke-linecap="butt" stroke-linejoin="miter" stroke-miterlimit="10" stroke-dasharray="" stroke-dashoffset="0" font-family="none" font-weight="none" font-size="none" text-anchor="none" style="mix-blend-mode: normal"><g transform="scale(5.33333,5.33333)"><path d="M27,38c-17.9,0 -21.8,-4.8 -23.4,-6.9c-0.4,-0.4 -0.6,-1 -0.6,-1.6c0,-1.4 1.1,-2.5 2.5,-2.5c0.9,0 3.5,0 3.5,-4.9v-0.6c0,-9.1 8.1,-16.5 18,-16.5c9.9,0 18,7.4 18,16.5c0,9.1 -8.1,16.5 -18,16.5z" fill="#000000"></path><path d="M27,36c8.8,0 16,-6.5 16,-14.5c0,-8 -7.2,-14.5 -16,-14.5c-8.8,0 -16,6.5 -16,14.5v0.6c0,6.2 -3.8,6.9 -5.5,6.9c-0.3,0 -0.5,0.2 -0.5,0.5c0,0.1 0,0.2 0.1,0.3c1.5,1.9 4.9,6.2 21.9,6.2z" fill="#eceff1"></path><path d="M32,16c-1.10457,0 -2,0.89543 -2,2c0,1.10457 0.89543,2 2,2c1.10457,0 2,-0.89543 2,-2c0,-1.10457 -0.89543,-2 -2,-2zM22,16c-1.10457,0 -2,0.89543 -2,2c0,1.10457 0.89543,2 2,2c1.10457,0 2,-0.89543 2,-2c0,-1.10457 -0.89543,-2 -2,-2zM27,29c-4.8,0 -6.7,-3.5 -7,-5.3c-0.1,-0.5 0.3,-1.1 0.8,-1.2c0.5,-0.1 1.1,0.3 1.2,0.8c0,0.1 0.7,3.7 5,3.7c4.3,0 5,-3.5 5,-3.7c0.1,-0.5 0.6,-0.9 1.2,-0.8c0.5,0.1 0.9,0.6 0.8,1.1c-0.3,1.9 -2.2,5.4 -7,5.4zM16.5,34c-2.48528,0 -4.5,2.01472 -4.5,4.5c0,2.48528 2.01472,4.5 4.5,4.5c2.48528,0 4.5,-2.01472 4.5,-4.5c0,-2.48528 -2.01472,-4.5 -4.5,-4.5z" fill="#000000"></path><path d="M16.5,37c-0.82843,0 -1.5,0.67157 -1.5,1.5c0,0.82843 0.67157,1.5 1.5,1.5c0.82843,0 1.5,-0.67157 1.5,-1.5c0,-0.82843 -0.67157,-1.5 -1.5,-1.5z" fill="#000000"></path><path d="M32.5,34c-2.48528,0 -4.5,2.01472 -4.5,4.5c0,2.48528 2.01472,4.5 4.5,4.5c2.48528,0 4.5,-2.01472 4.5,-4.5c0,-2.48528 -2.01472,-4.5 -4.5,-4.5z" fill="#000000"></path><path d="M32.5,37c-0.82843,0 -1.5,0.67157 -1.5,1.5c0,0.82843 0.67157,1.5 1.5,1.5c0.82843,0 1.5,-0.67157 1.5,-1.5c0,-0.82843 -0.67157,-1.5 -1.5,-1.5z" fill="#000000"></path></g></g></g></svg>